<svg xmlns="http://www.w3.org/2000/svg" width="28" height="28" viewBox="0 0 28 28"><g fill="none" fill-rule="evenodd"><path fill="#009CD0" d="M2,0 L26,0 C27.1045695,0 28,0.8954305 28,2 L28,26 C28,27.1045695 27.1045695,28 26,28 L2,28 C0.8954305,28 0,27.1045695 0,26 L0,2 C0,0.8954305 0.8954305,0 2,0 Z"/><path fill="#FFF" fill-rule="nonzero" d="M18.92,16.96 C18.92,15.24 17.62,13.96 15.72,13.78 L15.72,13.74 C17.38,13.44 18.5,12.28 18.5,10.62 C18.5,7.56 15.8,7.04 14,7.04 L9.12,7.04 L9.12,21 L14,21 C15.76,21 18.92,20.48 18.92,16.96 Z M13.06,12.68 L11.92,12.68 L11.92,9.24 L13,9.24 C14.28,9.24 15.7,9.36 15.7,10.98 C15.7,12.42 14.24,12.68 13.06,12.68 Z M13.24,18.8 L11.92,18.8 L11.92,14.76 L13.24,14.76 C14.64,14.76 16.12,15.04 16.12,16.86 C16.12,18.48 14.54,18.8 13.24,18.8 Z"/></g></svg>