<svg xmlns="http://www.w3.org/2000/svg" width="28" height="28" viewBox="0 0 28 28"><g fill="none" fill-rule="evenodd"><path fill="#4FB944" d="M2,0 L26,0 C27.1045695,0 28,0.8954305 28,2 L28,26 C28,27.1045695 27.1045695,28 26,28 L2,28 C0.8954305,28 0,27.1045695 0,26 L0,2 C0,0.8954305 0.8954305,0 2,0 Z"/><path fill="#FFF" fill-rule="nonzero" d="M15.1,21.24 C16.6,21.24 18.14,20.92 19.62,20.52 L19.62,13 L13.98,13 L13.98,15.2 L16.94,15.2 L16.94,18.84 C16.46,18.96 15.86,19.04 15.1,19.04 C12.12,19.04 10.36,16.9 10.36,14.06 C10.36,11.2 12.16,9 15.42,9 C16.54,9 17.94,9.24 19.02,9.74 L19.2,7.38 C18,7.02 16.72,6.8 15.1,6.8 C10.36,6.8 7.44,9.48 7.44,14.26 C7.44,18.98 10.58,21.24 15.1,21.24 Z"/></g></svg>