<svg xmlns="http://www.w3.org/2000/svg" width="28" height="28" viewBox="0 0 28 28"><g fill="none" fill-rule="evenodd"><path fill="#B0BEC7" d="M2,0 L26,0 C27.1045695,0 28,0.8954305 28,2 L28,26 C28,27.1045695 27.1045695,28 26,28 L2,28 C0.8954305,28 0,27.1045695 0,26 L0,2 C0,0.8954305 0.8954305,0 2,0 Z"/><path fill="#000" fill-rule="nonzero" d="M14.6456693 5.19685039C14.6456693 4.12598425 13.1968504 4.15748031 13.1968504 5.22834646L13.1968504 9.16535433 7.46456693 12.503937 7.46456693 14.015748 13.1653543 12.2519685 13.1653543 15.2755906 11.8425197 16.3149606 11.8425197 17.511811 13.8582677 16.8818898 15.8740157 17.511811 15.8740157 16.3149606 14.5826772 15.2755906 14.5826772 12.2519685 20.1889764 14.0472441 20.1889764 12.5354331 14.6456693 9.25984252 14.6456693 5.19685039 14.6456693 5.19685039 14.6456693 5.19685039ZM8.53543307 18.5826772C10.2992126 18.5826772 11.2755906 19.7795276 11.2755906 21.480315 11.2755906 23.1811024 10.2992126 24.4094488 8.53543307 24.4094488 6.77165354 24.4094488 5.79527559 23.2125984 5.79527559 21.480315 5.79527559 19.7480315 6.74015748 18.5826772 8.53543307 18.5826772M8.53543307 23.496063C9.66929134 23.496063 10.1102362 22.488189 10.1102362 21.4488189 10.1102362 20.4094488 9.63779528 19.4330709 8.53543307 19.4330709 7.43307087 19.4330709 6.96062992 20.4409449 6.96062992 21.4488189 6.96062992 22.4566929 7.37007874 23.496063 8.53543307 23.496063M13.511811 18.6771654 14.7716535 18.6771654 16.976378 24.2834646 15.7165354 24.2834646 15.2440945 22.992126 12.976378 22.992126 12.4724409 24.2834646 11.3385827 24.2834646C11.3385827 24.2834646 13.511811 18.6771654 13.511811 18.6771654ZM14.1417323 19.8110236 14.1417323 19.8110236 13.3228346 22.1417323 14.9606299 22.1417323 14.1417323 19.8110236 14.1417323 19.8110236Z"/><polygon fill="#000" fill-rule="nonzero" points="17.575 18.677 18.709 18.677 18.709 21.102 20.756 18.677 22.142 18.677 19.811 21.323 22.236 24.283 20.756 24.283 18.74 21.669 18.709 21.669 18.709 24.283 17.575 24.283"/></g></svg>