<svg xmlns="http://www.w3.org/2000/svg" width="28" height="28" viewBox="0 0 28 28"><g fill="none" fill-rule="evenodd"><path fill="#F2A807" d="M2,0 L26,0 C27.1045695,0 28,0.8954305 28,2 L28,26 C28,27.1045695 27.1045695,28 26,28 L2,28 C0.8954305,28 0,27.1045695 0,26 L0,2 C0,0.8954305 0.8954305,0 2,0 Z"/><path fill="#000" fill-rule="nonzero" d="M13.78,21.24 C18.2,21.24 20.62,18.2 20.62,13.98 C20.62,9.76 18.16,6.8 13.78,6.8 C9.34,6.8 6.94,9.7 6.94,13.98 C6.94,18.26 9.3,21.24 13.78,21.24 Z M13.78,19.04 C10.92,19.04 9.86,16.5 9.86,13.98 C9.86,11.52 11,9 13.78,9 C16.56,9 17.7,11.52 17.7,13.98 C17.7,16.5 16.64,19.04 13.78,19.04 Z"/></g></svg>