<svg xmlns="http://www.w3.org/2000/svg" width="28" height="28" viewBox="0 0 28 28"><g fill="none" fill-rule="evenodd"><path fill="#E11B27" d="M2,0 L26,0 C27.1045695,0 28,0.8954305 28,2 L28,26 C28,27.1045695 27.1045695,28 26,28 L2,28 C0.8954305,28 0,27.1045695 0,26 L0,2 C0,0.8954305 0.8954305,0 2,0 Z"/><path fill="#FFF" fill-rule="nonzero" d="M11.68,21 L11.68,15.2 L12.58,15.2 C13.76,15.2 14.12,15.6 14.52,16.64 L16.2,21 L19.32,21 L17.08,15.54 C16.8,14.92 16.36,14.16 15.6,14.1 L15.6,14.06 C17.38,13.82 18.48,12.46 18.48,10.82 C18.48,7.4056 15.707648,7.073312 12.9978675,7.04273024 L12.4453654,7.03980128 L12.4453654,7.03980128 L8.88,7.04 L8.88,21 L11.68,21 Z M12.7433991,12.9992316 L11.68,13 L11.68,9.24 L12.6,9.24 C14,9.24 15.56,9.38 15.56,11.06 C15.56,12.74 14.0870868,12.9843757 12.7433991,12.9992316 Z"/></g></svg>